HIERARCHY
ROOT Hips
{
  OFFSET -276.494 97.6339 298.176
  CHANNELS 6 Xposition Yposition Zposition Zrotation Xrotation Yrotation
  JOINT ToSpine
  {
    OFFSET -2.69724 7.43032 -0.144315
    CHANNELS 3 Zrotation Xrotation Yrotation
    JOINT Spine
    {
      OFFSET -0.0310711 10.7595 1.96963
      CHANNELS 3 Zrotation Xrotation Yrotation
      JOINT Spine1
      {
        OFFSET 19.9056 3.91189 0.764692
        CHANNELS 3 Zrotation Xrotation Yrotation
        JOINT Neck
        {
          OFFSET 25.9749 7.03908 -0.130764
          CHANNELS 3 Zrotation Xrotation Yrotation
          JOINT Head
          {
            OFFSET 9.52751 0.295786 -0.907742
            CHANNELS 3 Zrotation Xrotation Yrotation
            End Site
            {
              OFFSET 16.4037 0.713936 2.7358
            }
          }
        }
        JOINT LeftShoulder
        {
          OFFSET 17.7449 4.33886 11.7777
          CHANNELS 3 Zrotation Xrotation Yrotation
          JOINT LeftArm
          {
            OFFSET 0.911315 1.27913 9.80584
            CHANNELS 3 Zrotation Xrotation Yrotation
            JOINT LeftForeArm
            {
              OFFSET 28.6126 1.18197 -3.53199
              CHANNELS 3 Zrotation Xrotation Yrotation
              JOINT LeftHand
              {
                OFFSET 27.5088 0.0218783 0.327423
                CHANNELS 3 Zrotation Xrotation Yrotation
                End Site
                {
                  OFFSET 18.6038 -0.000155887 0.382096
                }
              }
            }
          }
        }
        JOINT RightShoulder
        {
          OFFSET 17.1009 2.89543 -12.2328
          CHANNELS 3 Zrotation Xrotation Yrotation
          JOINT RightArm
          {
            OFFSET 1.4228 0.178766 -10.211
            CHANNELS 3 Zrotation Xrotation Yrotation
            JOINT RightForeArm
            {
              OFFSET 28.733 1.87905 2.64907
              CHANNELS 3 Zrotation Xrotation Yrotation
              JOINT RightHand
              {
                OFFSET 27.4588 0.290562 -0.101845
                CHANNELS 3 Zrotation Xrotation Yrotation
                End Site
                {
                  OFFSET 17.8396 -0.255518 -0.000602873
                }
              }
            }
          }
        }
      }
    }
  }
  JOINT LeftUpLeg
  {
    OFFSET -5.61296 -2.22332 -10.2353
    CHANNELS 3 Zrotation Xrotation Yrotation
    JOINT LeftLeg
    {
      OFFSET 2.56703 -44.7417 -7.93097
      CHANNELS 3 Zrotation Xrotation Yrotation
      JOINT LeftFoot
      {
        OFFSET 3.16933 -46.5642 -3.96578
        CHANNELS 3 Zrotation Xrotation Yrotation
        JOINT LeftToeBase
        {
          OFFSET 0.346054 -6.02161 12.8035
          CHANNELS 3 Zrotation Xrotation Yrotation
          End Site
          {
            OFFSET 0.134235 -1.35082 5.13018
          }
        }
      }
    }
  }
  JOINT RightUpLeg
  {
    OFFSET -5.7928 -1.72406 10.6446
    CHANNELS 3 Zrotation Xrotation Yrotation
    JOINT RightLeg
    {
      OFFSET -2.57161 -44.7178 -7.85259
      CHANNELS 3 Zrotation Xrotation Yrotation
      JOINT RightFoot
      {
        OFFSET -3.10148 -46.5936 -4.03391
        CHANNELS 3 Zrotation Xrotation Yrotation
        JOINT RightToeBase
        {
          OFFSET -0.0828122 -6.13587 12.8035
          CHANNELS 3 Zrotation Xrotation Yrotation
          End Site
          {
            OFFSET -0.131328 -1.35082 5.13018
          }
        }
      }
    }
  }
}
MOTION
Frames:	20
Frame Time:	0.0333333
-276.494 97.6339 298.176 67.8374 64.1105 23.9413 -70.1915 0 88.8779 97.7728 69.4525 -16.7905 12.3857 19.0664 -2.34022 -158.197 23.9076 150.011 -137.526 56.0698 147.154 0.530131 -4.38529 0.494818 -27.0376 20.6049 169.891 3.73208 0.630986 -80.6162 -17.135 -1.35586 10.9462 0.925571 -11.6262 18.1016 -80.1974 -43.4699 65.1965 8.8197 -13.1181 24.4051 5.18128 -0.00925779 -0.605044 -65.4786 -9.66819 84.3414 -2.07435 40.8336 -3.66326 7.26671 5.21536 -0.940779 -7.63005 -31.8811 12.1747 -32.5209 4.08649 90.3297 1.59136 33.5728 5.76244 -4.71019 -9.85837 1.04184 1.20425 11.2445 -10.3125 
-271.314 94.8556 292.447 73.3672 64.5588 17.9929 -70.1915 0 88.8779 104.457 67.9044 -24.8893 7.61639 17.9019 0.381816 -152.591 21.2903 155.076 -139.769 55.9566 155.1 0.968235 -4.81416 -7.95735 -26.7856 17.369 -178.317 24.5337 3.614 -81.6066 -17.6411 -2.10825 15.5678 0.680525 -7.63175 18.1035 -86.1838 -40.1258 58.3768 11.3312 -17.2581 26.2223 5.87924 0.00496546 -0.262468 -74.2262 -7.21939 90.4647 0.857611 38.328 -11.7959 9.10635 5.98382 -1.24926 -10.0591 -41.8388 8.25094 -34.3842 2.17476 88.0853 1.45874 29.6613 6.50588 -4.79707 -9.43332 1.03212 0.916347 12.1665 -10.1525 
-266.448 93.1507 286.671 69.5307 63.626 18.9663 -70.1915 0 88.8779 99.4332 67.8648 -21.4961 5.16485 16.9913 2.52462 -150.059 20.5138 159.46 -140.906 56.1169 159.3 1.31412 -4.31159 -14.7957 -27.8002 20.0577 -169.519 12.5244 2.73399 -76.682 -24.32 -2.35142 12.8013 0.575787 -5.56934 18.589 -93.2213 -37.6614 53.5252 13.072 -18.4166 29.3446 6.62073 -0.0203772 -0.758563 -78.8147 -6.42525 97.9898 3.33043 34.4805 -21.8462 8.9383 3.87018 -1.20935 -10.0081 -41.5584 8.16972 -31.0127 -0.947811 86.34 1.43775 28.1697 6.97061 -4.04843 -8.43313 0.965676 1.51367 16.5114 -13.3915 
-261.654 92.4276 280.671 63.0159 62.5645 24.7304 -70.1915 0 88.8779 93.1149 67.3807 -13.9143 5.21674 15.4357 4.99894 -153.264 20.8064 165.828 -145.676 57.2303 163.791 1.63767 -3.24009 -19.2863 -27.6223 22.3349 -164.305 18.5929 6.7451 -68.6783 -26.9567 -1.05112 6.20238 0.464699 -4.69581 17.1012 -97.6147 -39.7051 52.5406 13.4896 -16.7031 32.9311 8.07369 -0.0200137 -0.67513 -80.8564 -5.54667 97.512 3.88349 32.9556 -24.1494 7.44389 2.81722 -0.988 -9.34158 -39.6054 9.65799 -27.679 -1.99311 84.3858 1.55411 27.5684 5.31815 -4.2562 -6.41781 0.905776 1.87393 16.7403 -14.2198 
-256.299 91.8366 274.601 60.2481 61.2854 29.3097 -70.1915 0 88.8779 95.4367 66.9983 -12.9604 4.44483 14.7725 7.21853 -156.903 20.7526 168.056 -145.616 56.6888 162.6 1.71631 -2.9721 -20.1638 -25.9999 25.5367 -164.104 20.7615 13.8074 -54.5909 -20.9496 1.22923 -4.97521 0.518241 -5.23727 17.7163 -97.5437 -42.9883 55.4912 12.4292 -13.6708 35.4488 8.3928 -0.0461127 -1.04662 -82.2253 -4.33295 86.4475 -0.320015 36.1014 -12.3981 5.62608 2.38864 -0.73531 -8.65414 -36.5282 10.1301 -25.2944 0.165539 81.9781 1.33464 33.4957 3.00653 -3.45054 -1.18398 0.635983 -1.30205 18.5189 -8.66633 
-251.233 90.8875 268.419 59.9681 59.9902 31.5866 -70.1915 0 88.8779 97.6549 66.939 -11.4469 5.93183 14.6191 8.63081 -160.821 20.4892 170.441 -144.705 55.979 161.998 1.7838 -3.05571 -21.3549 -23.3311 24.4808 -164.224 8.69235 8.1255 -39.189 4.05256 -0.33869 -7.35912 0.551522 -4.95899 18.9926 -94.8505 -46.1985 61.8282 11.8255 -12.0624 37.1273 7.90899 -0.0527262 -1.19625 -79.1586 -1.65202 84.7097 -3.06946 47.1069 -7.11195 2.86173 2.22932 -0.353195 -7.23206 -29.1405 10.5725 -22.4088 1.36059 78.627 2.18561 45.9263 2.75473 -4.82483 -4.26658 0.879872 -1.61983 19.3288 -8.42421 
-246.848 90.4948 262.733 66.1219 57.8785 28.5309 -70.1915 0 88.8779 109.072 66.2655 -18.2042 6.89517 15.1631 8.54015 -161.606 19.766 171.523 -142.968 54.7387 161.372 1.87267 -2.90513 -22.4911 -25.6822 28.8697 -159.039 9.69365 12.5057 -31.1165 13.4224 -1.05524 -7.0899 0.425393 -2.5908 21.0476 -87.1256 -48.7546 72.5698 12.8817 -12.6931 38.9308 7.86223 0.0106731 -0.199067 -75.24 0.468439 85.7702 -5.68936 62.3959 -3.5877 2.90997 4.79527 -0.241156 -7.0285 -28.9221 15.7865 -24.7342 3.6961 74.5562 3.38399 52.2952 5.54434 -5.94989 -3.73182 0.964906 -0.484155 21.6311 -11.5775 
-242.466 89.5795 256.943 68.9148 56.2317 25.1747 -70.1915 0 88.8779 111.244 66.7607 -18.8941 8.90183 16.4098 7.59549 -162.8 19.4242 174.05 -146.437 55.4161 163.892 1.96862 -2.55305 -23.3205 -28.6752 29.1681 -154.31 2.30262 0.435162 -26.13 1.80796 -0.106809 -4.50604 0.365418 -1.8206 21.663 -74.9133 -50.8327 88.5736 14.4604 -13.5104 41.4833 7.5259 0.0198684 -0.0386647 -67.8476 -1.35259 86.456 -16.1954 78.6631 11.3867 3.10659 5.41142 -0.245519 -7.51382 -32.4698 15.3351 -25.4988 5.15878 75.6704 5.11579 59.826 6.13164 -6.1517 -2.94852 0.968982 5.08479 7.37683 -17.359 
-237.725 89.5201 251.624 70.7084 55.3223 23.9923 -70.1915 0 88.8779 112.657 67.25 -18.0603 10.2997 17.4679 6.59909 -162.737 20.0049 174.965 -146.375 55.8944 162.405 1.97666 -1.97986 -22.4875 -26.1737 23.8407 -151.44 4.46231 6.45855 -21.5127 12.1976 -0.680262 -4.55571 0.35034 -1.6927 21.3355 -61.4137 -51.2289 105.634 16.7621 -14.1697 45.5901 5.39732 0.105921 2.17012 -58.7681 -0.267216 86.5853 -135.061 84.5898 132.378 3.84857 5.59912 -0.36216 -7.75397 -33.9768 14.9153 -28.5399 7.5613 76.0801 6.19194 63.4505 4.97012 -6.01929 -5.21937 0.999494 6.20122 0.50679 -16.9056 
-232.95 90.5584 246.278 71.2852 54.9668 24.4207 -70.1915 0 88.8779 114.35 68.1138 -17.4018 10.1419 18.668 6.95698 -161.664 20.8984 175.931 -145.353 56.6996 162.004 2.00062 -1.68162 -22.3604 -28.2545 24.2376 -145.446 5.99239 9.67563 -21.9763 3.90202 -0.257537 -5.49607 0.305062 -1.2868 19.9366 -55.4948 -52.4361 113.571 20.5425 -13.9915 53.2917 4.8727 0.0390351 0.679581 -48.5428 0.292467 84.5517 -162.902 74.5382 159.829 4.34446 5.46658 -0.450154 -7.95189 -34.9753 14.3229 -33.7959 10.022 75.8191 6.26465 62.6891 6.37494 -6.49579 -5.31816 1.03747 8.64269 -6.72494 -20.2116 
-228.141 93.1013 240.525 70.1957 56.574 23.9761 -70.1915 0 88.8779 111.699 68.9103 -15.351 9.0435 19.5777 7.14709 -159.179 22.0996 174.801 -144.934 57.9353 161.906 1.91458 -1.87724 -21.4878 -28.7064 22.7513 -139.763 4.1035 4.4474 -23.546 1.30013 -0.111532 -6.77167 0.315419 -1.43134 19.8366 -50.536 -53.1616 118.421 19.7798 -10.2916 60.5131 3.52983 0.0419959 1.27756 -39.2225 -3.48642 82.905 -165.594 70.4986 162.005 4.66662 5.46075 -0.504205 -8.14578 -35.4493 13.0891 -41.5099 10.1793 77.5546 5.08659 58.0841 7.03887 -7.49039 -8.29896 1.13166 8.47535 -5.49436 -20.3671 
-222.687 96.9484 234.163 70.5921 58.7996 21.4365 -70.1915 0 88.8779 108.111 69.5949 -13.6911 7.94567 20.3465 6.5336 -155.846 23.5412 172.74 -145.139 59.7478 162.764 1.7612 -1.98137 -19.5223 -29.8325 23.1982 -135.083 6.00973 8.37421 -24.4593 6.43845 -0.394486 -5.10156 0.366985 -2.12258 19.7598 -46.5229 -54.7618 121.779 20.2918 -8.50638 66.0089 2.01067 0.0387781 2.80797 -33.9857 -7.17768 83.2976 -164.208 72.6455 160.141 4.76303 6.12166 -0.500272 -7.99863 -35.1114 14.0476 -51.4897 11.379 81.9537 3.23875 50.6436 3.79884 -7.44354 -11.2827 1.14964 6.49932 4.02751 -19.3996 
-218.01 101.192 228.428 71.0346 55.0341 16.6839 -70.1915 0 88.8779 106.356 72.7751 -13.6963 5.07943 23.5892 5.31156 -151.977 24.574 170.653 -141.779 60.4999 162.266 1.70136 -1.5855 -18.2815 -31.8786 24.4707 -129.259 8.07607 11.8069 -26.466 8.36348 -0.433762 -4.1044 0.411626 -2.68273 19.8861 -43.1874 -56.0967 123.502 21.1205 -6.96063 71.3115 -0.31331 -0.0439556 5.05727 -28.8505 -7.32428 88.9187 -158.023 78.6377 154.614 4.58548 5.53957 -0.488132 -7.6882 -32.8758 13.6795 -55.0627 8.29506 84.1827 2.51778 48.8014 0.280888 -6.1605 -8.23779 1.06454 -5.18824 18.287 -1.09298 
-213.407 105.734 222.805 73.1663 51.2431 13.171 -70.1915 0 88.8779 110.341 74.778 -17.6375 3.74063 25.5054 4.68213 -151.565 25.1565 170.878 -140.272 60.8159 161.453 1.75321 -0.467278 -17.8999 -36.7582 27.7071 -122.8 9.49725 13.5427 -28.4149 7.63848 -0.430364 -4.58685 0.436002 -3.03472 19.7675 -38.1709 -54.0336 126.851 18.5583 -4.91101 75.1142 0.930473 0.0180529 6.24263 -28.1232 -6.5237 90.9399 -114.633 85.8924 110.981 4.78081 4.68224 -0.54681 -7.38446 -31.2396 14.6848 -57.8953 6.12675 83.4094 2.18036 47.2254 -0.317339 -4.59826 -2.71063 0.811846 -29.6264 39.0239 24.8528 
-208.622 109.365 217.534 75.0793 49.3461 11.3102 -70.1915 0 88.8779 112.247 75.1845 -20.088 3.77468 25.5052 5.02003 -151.785 24.6952 171.92 -141.489 60.6398 163.094 1.64368 0.114519 -16.225 -42.7478 33.3739 -114.985 11.0531 14.8051 -31.1154 7.97738 -0.443072 -4.50358 0.38619 -2.36538 19.8151 -35.5049 -51.0893 128.589 19.7913 -3.73796 80.113 -0.258914 -0.036293 4.39944 -29.5915 -7.15945 89.6616 -24.0398 82.0577 20.452 4.49435 5.07942 -0.487858 -7.49235 -32.5761 15.8555 -60.0948 7.87171 86.1933 2.02578 45.2375 0.591053 -5.16969 -0.246343 0.803389 -31.6349 43.0621 25.1398 
-204.324 111.807 212.373 76.5087 48.1184 9.17748 -70.1915 0 88.8779 112.872 75.414 -21.6539 4.37287 25.7208 4.95125 -153.087 24.5808 172.325 -142.661 60.6543 163.163 1.40713 -0.767549 -13.9763 -49.0915 38.2696 -106.08 11.2639 13.5024 -34.1944 7.68551 -0.411267 -4.27798 0.351565 -1.98396 19.3651 -35.0044 -49.6502 129.134 24.2593 -2.90003 84.5302 -3.74576 -0.182361 4.4273 -31.9335 -9.1481 88.6529 -8.52303 73.1068 7.96284 4.12514 4.58811 -0.444931 -7.43737 -32.5024 16.5235 -60.5283 6.86157 85.9044 1.91404 41.9372 1.9684 -4.6901 -3.02522 0.830484 -27.5136 43.3896 19.6742 
-200.033 113.373 207.152 78.3329 46.4202 7.49517 -70.1915 0 88.8779 117.217 75.2136 -25.5552 4.65587 26.1163 4.10201 -154.197 24.1766 172.919 -143.554 60.2957 163.209 1.22865 -1.54871 -12.012 -53.418 40.8771 -98.4947 9.20488 9.92624 -35.5688 10.0475 -0.428904 -3.10267 0.347032 -1.97966 19.0278 -33.82 -48.1522 130.251 23.073 -1.48766 88.1699 -4.58444 -0.205887 4.17285 -35.0436 -9.85211 87.637 -4.02815 63.7378 5.99124 3.76003 3.06182 -0.446114 -7.66228 -33.1903 14.6608 -61.1704 4.73113 80.2879 0.603189 36.9427 5.93339 -4.5937 -8.04747 0.979841 -17.9971 41.5439 7.766 
-196.028 113.96 202.342 76.7574 43.6912 8.07551 -70.1915 0 88.8779 115.802 76.0283 -23.5737 4.58131 26.6261 3.42732 -156.081 23.3629 174.367 -144.74 59.4714 162.962 1.20191 -1.03069 -11.5425 -56.3731 40.5995 -92.3358 7.20919 6.913 -36.53 10.8247 -0.334883 -1.80326 0.336315 -1.80913 19.1236 -34.053 -46.4278 130.516 23.3566 -0.48826 90.9961 -6.96981 -0.352709 4.95642 -35.178 -10.0383 86.6602 -2.68879 55.2898 3.16211 3.67519 3.9089 -0.400002 -7.62982 -33.0446 14.8183 -58.7767 3.75644 78.402 1.52031 32.1797 4.86871 -3.93989 -7.82495 0.93755 -16.4019 36.1309 8.09959 
-192.015 113.037 197.698 75.1901 41.0716 8.59126 -70.1915 0 88.8779 113.908 76.9297 -21.6067 4.44062 27.0783 3.46079 -157.494 22.9504 175.854 -145.35 59.1031 163.053 1.17356 -0.861392 -11.1599 -58.1484 40.263 -88.3113 6.55197 6.15707 -35.9514 12.0967 -0.459761 -2.58598 0.315149 -1.52454 18.9734 -35.2651 -45.3697 130.388 21.6653 0.316276 93.5909 -5.23092 -0.203118 3.61812 -34.2023 -9.05982 87.2856 -2.36942 48.012 -1.37654 3.76757 3.54932 -0.428227 -7.29953 -30.5052 14.3136 -56.0337 3.79145 78.5951 2.73632 30.0743 4.61463 -3.58912 -5.97236 0.843599 -13.0311 30.6119 5.78719 
-187.876 110.855 192.916 76.3411 40.6266 7.18916 -70.1915 0 88.8779 116.513 76.647 -25.1448 5.04605 26.9224 3.58339 -158.192 22.582 177.805 -146.918 59.0864 164.263 1.13546 -0.771443 -10.6826 -58.6373 39.7181 -87.5584 5.72012 5.51795 -33.2456 12.2265 -0.587853 -3.70338 0.291943 -1.20796 18.7115 -37.1276 -44.7867 129.891 20.081 0.753824 95.4569 -5.68217 -0.224279 3.71677 -34.9888 -9.63972 86.807 -2.06252 41.2644 -4.07386 3.01677 3.07765 -0.336305 -6.89395 -27.5546 13.705 -56.7316 3.85224 78.8797 2.458 29.3247 4.05959 -3.65108 -4.71807 0.798051 -12.8435 26.1508 7.90432 
